<?xml version="1.0" encoding="UTF-8" standalone="no"?><!-- Generator: Gravit.io --><svg xmlns="http://www.w3.org/2000/svg" xmlns:xlink="http://www.w3.org/1999/xlink" style="isolation:isolate" viewBox="0 0 14.845 14.001" width="14.845pt" height="14.001pt"><defs><clipPath id="_clipPath_dBL8XdH6BSIIGdxg99pM8AAzKIIRPtEl"><rect width="14.845" height="14.001"/></clipPath></defs><g clip-path="url(#_clipPath_dBL8XdH6BSIIGdxg99pM8AAzKIIRPtEl)"><rect width="14.845" height="14.001" style="fill:rgb(255,223,5)" fill-opacity="0"/><path d=" M 0.928 6.001 L 11.932 6.001 L 8.564 1.641 C 8.406 1.437 8.331 1.174 8.353 0.909 C 8.376 0.645 8.495 0.401 8.685 0.231 C 8.874 0.062 9.118 -0.02 9.364 0.004 C 9.609 0.029 9.835 0.157 9.993 0.361 L 14.632 6.361 C 14.663 6.409 14.691 6.459 14.715 6.511 C 14.715 6.561 14.715 6.591 14.78 6.641 C 14.822 6.756 14.845 6.878 14.845 7.001 C 14.845 7.125 14.822 7.247 14.78 7.361 C 14.78 7.411 14.78 7.441 14.715 7.491 C 14.691 7.543 14.663 7.594 14.632 7.641 L 9.993 13.641 C 9.906 13.754 9.796 13.845 9.673 13.907 C 9.549 13.969 9.415 14.002 9.278 14.001 C 9.062 14.002 8.851 13.92 8.685 13.771 C 8.591 13.687 8.513 13.584 8.456 13.468 C 8.399 13.352 8.364 13.224 8.353 13.093 C 8.342 12.962 8.354 12.83 8.391 12.705 C 8.427 12.579 8.486 12.462 8.564 12.361 L 11.932 8.001 L 0.928 8.001 C 0.682 8.001 0.446 7.896 0.272 7.708 C 0.098 7.521 0 7.266 0 7.001 C 0 6.736 0.098 6.482 0.272 6.294 C 0.446 6.107 0.682 6.001 0.928 6.001 Z " fill="rgb(0,0,0)"/></g></svg>