<?xml version="1.0" encoding="UTF-8" standalone="no"?><!-- Generator: Gravit.io --><svg xmlns="http://www.w3.org/2000/svg" xmlns:xlink="http://www.w3.org/1999/xlink" style="isolation:isolate" viewBox="0 0 14.845 14.001" width="14.845pt" height="14.001pt"><defs><clipPath id="_clipPath_srgUVfYmudZnt72I7dM00I5whCNMyLDf"><rect width="14.845" height="14.001"/></clipPath></defs><g clip-path="url(#_clipPath_srgUVfYmudZnt72I7dM00I5whCNMyLDf)"><rect width="14.845" height="14.001" style="fill:rgb(255,223,5)" fill-opacity="0"/><path d=" M 13.917 6.001 L 2.913 6.001 L 6.281 1.641 C 6.439 1.437 6.515 1.174 6.492 0.909 C 6.469 0.645 6.35 0.401 6.161 0.231 C 5.971 0.062 5.727 -0.02 5.482 0.004 C 5.236 0.029 5.01 0.157 4.853 0.361 L 0.213 6.361 C 0.182 6.409 0.154 6.459 0.13 6.511 C 0.13 6.561 0.13 6.591 0.065 6.641 C 0.023 6.756 0.001 6.878 0 7.001 C 0.001 7.125 0.023 7.247 0.065 7.361 C 0.065 7.411 0.065 7.441 0.13 7.491 C 0.154 7.543 0.182 7.594 0.213 7.641 L 4.853 13.641 C 4.94 13.754 5.049 13.845 5.172 13.907 C 5.296 13.969 5.431 14.002 5.567 14.001 C 5.784 14.002 5.994 13.92 6.161 13.771 C 6.255 13.687 6.332 13.584 6.389 13.468 C 6.446 13.352 6.481 13.224 6.493 13.093 C 6.504 12.962 6.491 12.83 6.455 12.705 C 6.418 12.579 6.36 12.462 6.281 12.361 L 2.913 8.001 L 13.917 8.001 C 14.164 8.001 14.4 7.896 14.574 7.708 C 14.748 7.521 14.845 7.266 14.845 7.001 C 14.845 6.736 14.748 6.482 14.574 6.294 C 14.4 6.107 14.164 6.001 13.917 6.001 Z " fill="rgb(0,0,0)"/></g></svg>