<svg width="9" height="9" viewBox="0 0 9 9" fill="none" xmlns="http://www.w3.org/2000/svg">
<path d="M4.5 -3.04403e-07C2.01496 -1.36302e-07 1.17339e-07 2.01496 2.62054e-07 4.5C4.06769e-07 6.98505 2.01496 9 4.5 9C6.98505 9 9 6.98504 9 4.5C9 2.01495 6.98504 -4.72504e-07 4.5 -3.04403e-07ZM6.16138 6.2096L5.49844 6.20659L4.5 5.0163L3.50257 6.20558L2.83862 6.20859C2.79442 6.20859 2.75826 6.17344 2.75826 6.12824C2.75826 6.10915 2.76529 6.09107 2.77734 6.07601L4.08415 4.51909L2.77734 2.96317C2.76521 2.94845 2.75847 2.93002 2.75826 2.91094C2.75826 2.86674 2.79442 2.83058 2.83862 2.83058L3.50257 2.83359L4.5 4.02388L5.49743 2.8346L6.16038 2.83158C6.20458 2.83158 6.24074 2.86674 6.24074 2.91194C6.24074 2.93103 6.23371 2.94911 6.22165 2.96417L4.91685 4.52009L6.22266 6.07701C6.23471 6.09208 6.24174 6.11016 6.24174 6.12924C6.24174 6.17344 6.20558 6.2096 6.16138 6.2096Z" fill="white"/>
</svg>
